<svg width="243" height="131" viewBox="0 0 243 131" fill="none" xmlns="http://www.w3.org/2000/svg">
<path fill-rule="evenodd" clip-rule="evenodd" d="M93.1729 36.526C69.8135 22.0346 86.0548 6.08718 82.6595 0.00291861C74.1613 -0.300292 65.3006 23.1096 63.4205 29.1337C56.9074 50.0101 64.153 41.5052 43.3863 52.1201C33.468 57.1895 20.277 64.9827 12.5288 74.7281C7.69095 80.8149 7.12338 84.4509 5.47826 90.8008C3.92313 96.8099 -1.41978 102.05 0.357849 106.523C4.42569 116.774 37.7509 104.493 47.8042 103.393C53.9097 102.726 59.5627 102.393 65.4831 101.145C61.7053 98.4662 60.4827 96.9753 59.6552 96.236C58.8826 95.5469 51.642 97.2258 50.0719 97.3211C28.3676 98.6316 15.7841 110.261 7.38092 105.728C12.5563 103.202 13.3989 104.162 18.7843 99.2355C25.5974 92.9984 31.7079 88.9339 40.6861 86.3804C58.9151 81.1908 56.2724 82.6767 62.0704 93.1388C67.4983 102.934 89.6776 110.991 95.8056 105.039C91.5352 101.456 87.9099 101.521 84.9722 96.4415C83.3971 93.7201 81.3169 88.7986 81.7845 86.1549C86.2098 86.0246 92.4953 87.6734 101.544 87.4705C107.769 87.3301 113.472 86.9618 120.865 83.3257C127.811 79.9127 133.179 70.9542 139.809 67.867C153.025 61.7176 166.249 71.3176 158.336 80.9677C153.368 87.0244 99.2509 92.3895 86.6798 94.8703C89.2825 98.0954 91.3477 99.0626 93.3704 99.2055C124.5 101.383 153.215 82.366 194.181 102.992C189.488 111.234 193.856 127.354 202.849 131C200.617 118.974 215.31 114.336 213.203 104.385C230.206 106.969 229.576 94.4744 243 95.0131C239.815 86.4932 215.223 83.7718 205.089 91.0313C178.55 61.5297 137.997 30.0609 93.1704 36.5235L93.1729 36.526ZM41.0211 69.6362C45.324 76.8105 26.3825 86.6235 22.2896 88.2247C18.1943 89.8235 8.67603 97.9801 15.3316 88.7986C18.7944 85.2077 35.5382 60.4922 41.0236 69.6387L41.0211 69.6362Z" fill="black"/>
</svg>
